<?xml version="1.0" encoding="UTF-8"?>
<svg width="1917px" height="1141px" viewBox="0 0 1917 1141" version="1.1" xmlns="http://www.w3.org/2000/svg" xmlns:xlink="http://www.w3.org/1999/xlink">
    <!-- Generator: Sketch 54.1 (76490) - https://sketchapp.com -->
    <title>ARTE HEADER</title>
    <desc>Created with Sketch.</desc>
    <defs>
        <rect id="path-1" x="0" y="0" width="1920" height="1141"></rect>
        <polygon id="path-3" points="0 0.106029825 73.4320793 0.106029825 73.4320793 77.5250107 0 77.5250107"></polygon>
        <polygon id="path-5" points="0 149 653 149 653 0 0 0"></polygon>
        <polygon id="path-7" points="0 0.1281 15.0726 0.1281 15.0726 24 0 24"></polygon>
        <polygon id="path-9" points="0.022 0.7353 15.351 0.7353 15.351 24 0.022 24"></polygon>
    </defs>
    <g id="DESKTOP" stroke="none" stroke-width="1" fill="none" fill-rule="evenodd">
        <g id="01-DESKTOP-ANTES" transform="translate(-3.000000, -281.000000)">
            <g id="ARTE-HEADER" transform="translate(0.000000, 281.000000)">
                <mask id="mask-2" fill="white">
                    <use xlink:href="#path-1"></use>
                </mask>
                <g id="Mask"></g>
                <g mask="url(#mask-2)">
                    <g transform="translate(964.500000, 933.500000) rotate(-270.000000) translate(-964.500000, -933.500000) translate(31.000000, -28.000000)">
                        <polygon id="Fill-1" fill="#FCE679" points="3 1923 628 1923 628 1298 3 1298"></polygon>
                        <polygon id="Fill-2" fill="#FECCC1" points="625.5 1252.5 1866.5 1252.5 1866.5 0.5 625.5 0.5"></polygon>
                        <polygon id="Fill-3" fill="#A8D2C9" points="628.5 1922.5 1866.5 1922.5 1866.5 1297.5 628.5 1297.5"></polygon>
                        <g id="Group-13" stroke-width="1" fill="none" transform="translate(0.000000, 681.000000)">
                            <path d="M624.933962,927.629907 C624.933962,1100.34702 485.036774,1240.36364 312.466981,1240.36364 C139.897189,1240.36364 0,1100.34702 0,927.629907 C0,754.912794 139.897189,614.896178 312.466981,614.896178 C485.036774,614.896178 624.933962,754.912794 624.933962,927.629907" id="Fill-7" fill="#A8D2C9"></path>
                            <path d="M500.540241,922.344267 C500.540241,1026.30224 416.336111,1110.57826 312.466805,1110.57826 C208.597499,1110.57826 124.393369,1026.30224 124.393369,922.344267 C124.393369,818.386289 208.597499,734.110275 312.466805,734.110275 C416.336111,734.110275 500.540241,818.386289 500.540241,922.344267" id="Fill-9" fill="#160E45"></path>
                            <path d="M1865.11981,620.181818 C1865.11981,277.665267 1587.69138,0 1245.46698,0 C903.242581,0 625.814151,277.665267 625.814151,620.181818 C625.814151,962.69837 903.242581,1240.36364 1245.46698,1240.36364 L1245.46698,620.181818 L1865.11981,620.181818 Z" id="Fill-11" fill="#E06B71"></path>
                        </g>
                    </g>
                </g>
            </g>
            <g id="LOGO" transform="translate(948.000000, 418.000000)">
                <g id="LOGO-CORONA">
                    <g id="Group-39" transform="translate(1.000000, 0.000000)">
                        <g id="Group-3" transform="translate(0.000000, 62.000000)">
                            <mask id="mask-4" fill="white">
                                <use xlink:href="#path-3"></use>
                            </mask>
                            <g id="Clip-2"></g>
                            <path d="M55.8582053,60.493974 C40.3420762,62.1929102 36.2040665,58.7978161 36.2040665,58.7978161 L48.9657448,48.0804876 L48.9657448,11.3276215 C48.9657448,9.62729617 55.8582053,13.872553 55.8582053,13.872553 L55.8582053,60.493974 Z M73.4320793,9.97180654 C73.4320793,9.97180654 62.7492582,9.62729617 58.4409426,0.106029825 C58.4409426,0.106029825 48.4421599,11.1650904 32.9274384,15.0783392 L33.9703857,17.7996933 L33.9703857,53.0133759 L31.0315543,55.905596 C31.0315543,55.905596 19.3142308,47.3942451 18.2811359,37.1964604 C17.2480409,26.9833951 19.3142308,19.15273 30.8682859,9.29667735 C30.8682859,9.29667735 34.3081824,6.04883365 40.1689554,4.01927863 L40.1689554,2.82460558 C21.5493191,2.82460558 -0.000703743153,19.4861271 -0.000703743153,38.8912292 C-0.000703743153,58.1171303 14.7849399,69.5012531 34.3081824,69.5012531 C34.3081824,69.5012531 46.7222117,69.6290553 55.9229496,64.633655 L55.9229496,69.4359628 C55.9229496,69.8082563 55.162907,69.7374094 55.162907,69.7374094 C52.497128,69.7374094 50.3478964,71.4821877 50.3478964,73.6284317 C50.3478964,75.7802324 52.497128,77.5250107 55.162907,77.5250107 C57.8244636,77.5250107 59.9779177,75.7802324 59.9779177,73.6284317 L59.9779177,62.7791335 C59.9863626,62.7791335 62.5859898,60.8384844 63.4389265,60.1522419 C64.2960857,59.4715561 63.6007874,58.1171303 62.5859898,58.4533057 C61.5430425,58.7978161 59.9863626,59.4715561 59.9863626,59.4715561 L59.9863626,14.3990426 C59.9863626,14.3990426 68.9576803,15.2408703 73.4320793,9.97180654 L73.4320793,9.97180654 Z" id="Fill-1" fill="#160E45" mask="url(#mask-4)"></path>
                        </g>
                        <path d="M82.40275,113.528413 C75.4077694,112.117355 74.0150583,110.551424 74.0150583,110.551424 L74.0150583,86.8373241 C74.0150583,86.3124792 82.40275,89.8171814 82.40275,89.8171814 L82.40275,113.528413 Z M92.9030771,111.774628 L92.9030771,88.5954112 C92.9030771,87.7106316 94.6471799,85.7890682 94.6471799,85.7890682 C88.1821437,85.092143 77.8589409,80 77.8589409,80 C72.0924029,84.9014207 62.8090909,85.4334356 62.8090909,85.4334356 C62.6448225,86.4902955 64.2132294,88.4104249 64.2132294,88.4104249 L64.2132294,111.251217 C64.2132294,111.251217 63.5147312,111.95101 61.9463243,114.05756 C60.3679184,116.16411 61.240684,116.16411 61.240684,116.16411 C74.1921826,117.556526 79.4302046,123 79.4302046,123 C85.2095984,116.511139 95,115.102948 95,115.102948 C93.4315931,114.404589 92.9030771,111.774628 92.9030771,111.774628 L92.9030771,111.774628 Z" id="Fill-4" fill="#160E45"></path>
                        <path d="M148.40868,113.528413 C141.411757,112.117355 140.007802,110.551424 140.007802,110.551424 L140.007802,86.8373241 C140.007802,86.3124792 148.40868,89.8171814 148.40868,89.8171814 L148.40868,113.528413 Z M158.893353,111.774628 L158.893353,88.5954112 C158.893353,87.7106316 160.647226,85.7890682 160.647226,85.7890682 C154.175893,85.092143 143.854039,80 143.854039,80 C138.083969,84.9014207 128.816152,85.4334356 128.816152,85.4334356 C128.640479,86.4902955 130.218679,88.4104249 130.218679,88.4104249 L130.218679,111.251217 C130.218679,111.251217 129.5217,111.95101 127.9435,114.05756 C126.37387,116.16411 127.236524,116.16411 127.236524,116.16411 C140.193472,117.556526 145.433666,123 145.433666,123 C151.205164,116.511139 161,115.102948 161,115.102948 C159.431798,114.404589 158.893353,111.774628 158.893353,111.774628 L158.893353,111.774628 Z" id="Fill-6" fill="#160E45"></path>
                        <path d="M200.574927,113.417025 C200.568927,113.417025 200.549927,113.417025 200.534927,113.409025 C200.534927,113.409025 200.262927,113.813025 200.574927,113.417025" id="Fill-8" fill="#160E45"></path>
                        <path d="M218.480327,111.876069 C215.465719,109.465475 211.297624,107.382004 211.297624,107.382004 L211.297624,84.8850032 C209.241527,83.596171 218.480327,87.7897894 218.480327,87.7897894 L218.480327,111.876069 Z M231.835411,112.5612 C229.492988,112.210211 228.490845,109.281557 228.490845,109.281557 L228.490845,87.4500319 L228.490845,82.9854499 C221.310869,80.5832802 214.294507,78 214.294507,78 C207.619011,82.1192087 200.443124,84.3529036 200.443124,84.3529036 C200.275419,85.3876197 201.773861,87.2773452 201.773861,87.2773452 L201.773861,110.661646 C201.773861,110.661646 202.279704,109.975112 200.771718,112.031908 C200.391313,112.5612 200.151344,112.879898 200,113.082068 C207.164979,113.984812 215.066225,122 215.066225,122 L220.81457,115.647096 L227.31418,122 L235,113.07224 L231.835411,112.5612 Z" id="Fill-10" fill="#160E45"></path>
                        <path d="M97,86.8596946 L105.573261,80.1737696 C105.573261,80.1737696 111.010571,83.4249425 111.850706,84.7926773 C111.859024,84.7926773 112.704705,85.4961639 119.660081,80.8660452 L120.855125,80 C120.855125,80 125.267914,84.1004017 129,85.1374138 C129,85.1374138 128.151547,92.6949895 114.906247,89.0850664 C114.906247,89.0850664 112.029547,88.5735672 112.029547,89.952513 L112.029547,114.148527 L115.761632,114.148527 C115.761632,114.148527 109.983277,117.566462 107.945325,120.673294 C105.918465,123.754902 106.06126,122.887455 106.06126,122.887455 C106.068192,122.887455 105.402738,119.123382 98.1007712,114.832394 L97.9371805,114.323698 L101.335153,114.323698 L101.335153,91.3188464 C101.335153,91.3188464 99.8836323,87.0348656 97,86.8596946" id="Fill-12" fill="#160E45"></path>
                        <path d="M195.399893,85.1336667 C191.746757,83.6800793 185.71513,79 185.71513,79 L184.513887,79.8482731 C177.415115,84.4367223 175.3387,84.6074875 175.3387,84.6074875 C174.487525,83.2538603 168.779147,80.021815 168.779147,80.021815 L161,85.8083978 C163.945941,85.9638914 165.151419,90.7411543 165.151419,90.7411543 L165.151419,113.512635 L161.691668,113.512635 L161.866702,114.027707 C169.298604,118.280179 170.144132,121.835707 170.144132,121.835707 C170.144132,121.835707 169.816649,122.857522 171.890241,119.804572 C173.972303,116.75301 179.848657,113.3502 179.848657,113.3502 L176.037426,113.3502 L176.037426,89.366702 L180.537502,85.9638914 L183.990195,88.8627362 L183.990195,113.176658 L181.91378,113.176658 C181.91378,113.176658 189.625172,120.322421 189.963948,121.835707 C189.963948,121.835707 197.127651,113.69173 198,113.69173 L194.540249,113.69173 L194.540249,88.3462753 C194.540249,88.3462753 196.259538,85.4640906 195.399893,85.1336667" id="Fill-14" fill="#160E45"></path>
                        <path d="M242,118 L242,122 L242.983658,122 L242.983658,120.42885 L244.017121,120.42885 C244.309728,120.42885 244.510506,120.479532 244.625681,120.561404 C244.726848,120.639376 244.784436,120.814815 244.784436,121.070825 L244.784436,121.451592 C244.784436,121.568551 244.807782,121.677713 244.835798,121.779077 C244.846693,121.850552 244.877821,121.922027 244.898054,122 L246,122 L246,121.898635 C245.898833,121.850552 245.836576,121.779077 245.819455,121.662118 C245.796109,121.619233 245.788327,121.48538 245.788327,121.296946 L245.788327,121.02794 C245.788327,120.756335 245.744747,120.545809 245.657588,120.410656 C245.554864,120.276803 245.402335,120.157245 245.181323,120.096166 C245.453696,120.023392 245.646693,119.88564 245.758755,119.710201 C245.867704,119.51527 245.929961,119.339831 245.929961,119.134503 C245.929961,118.990253 245.887938,118.839506 245.827237,118.718648 C245.766537,118.604288 245.698054,118.482131 245.585992,118.391163 C245.466148,118.271605 245.313619,118.162443 245.129961,118.093567 C244.950973,118.053281 244.692607,118 244.348638,118 L242,118 Z M244.633463,118.764133 C244.823346,118.8577 244.916732,119.017544 244.916732,119.254061 C244.916732,119.472385 244.823346,119.624431 244.625681,119.710201 C244.510506,119.754386 244.340856,119.768681 244.115175,119.768681 L242.983658,119.768681 L242.983658,118.703054 L244.135409,118.703054 C244.362646,118.703054 244.510506,118.718648 244.633463,118.764133 L244.633463,118.764133 Z" id="Fill-16" fill="#160E45"></path>
                        <path d="M244,125.22598 C246.341539,125.22598 248.227504,123.338333 248.227504,121.009198 C248.227504,118.667327 246.341539,116.77402 244,116.77402 C241.669779,116.77402 239.778155,118.667327 239.778155,121.009198 C239.778155,123.338333 241.669779,125.22598 244,125.22598 M244,126 C246.768817,126 249,123.769917 249,121.009198 C249,118.239989 246.768817,116 244,116 C241.241087,116 239,118.239989 239,121.009198 C239,123.769917 241.241087,126 244,126" id="Fill-18" fill="#160E45"></path>
                        <path d="M233,122 C233,122 237.405738,90.098161 276,88 L276,95.5184103 C276,95.5184103 253.669607,88.5091537 235.757639,122 C235.467213,121.92027 233,122 233,122" id="Fill-20" fill="#160E45"></path>
                        <mask id="mask-6" fill="white">
                            <use xlink:href="#path-5"></use>
                        </mask>
                        <g id="Clip-23"></g>
                        <polygon id="Fill-22" fill="#160E45" mask="url(#mask-6)" points="263 121 267 121 267 94 263 94"></polygon>
                        <polygon id="Fill-24" fill="#160E45" mask="url(#mask-6)" points="256 121 260 121 260 94 256 94"></polygon>
                        <polygon id="Fill-25" fill="#160E45" mask="url(#mask-6)" points="249 122 253 122 253 98 249 98"></polygon>
                        <path d="M297.808161,38.3384756 L271,64.3040795 L293.779578,82.4277225 L294.305228,122 L396.980836,121.368461 C396.980836,121.368461 398.207353,103.862416 381.036112,92.8836704 C380.510462,89.9211519 379.984812,65.5239401 379.984812,65.5239401 L366.66834,79.1682551 L366.66834,87.4814307 L362.112705,87.4814307 L362.112705,23.7001486 L352.649599,23.7001486 L352.649599,0 L336.880092,19.3435036 L336.880092,67.6151297 L331.798807,72.494572 L331.798807,100.409165 C331.798807,100.409165 328.471091,102.72202 328.471091,104.425643 C328.471091,106.127871 325.842839,104.425643 325.842839,104.425643 L325.317189,96.0204548 L320.060687,95.3233916 L318.30852,45.1348417 L321.462421,41.47526 L318.83417,40.7781968 L318.83417,33.1105017 L317.082002,33.2847675 L316.906786,31.8906411 C316.906786,31.8906411 319.710254,31.5421095 319.35982,30.4965147 C319.009387,29.4509199 316.906786,28.5795909 316.906786,28.5795909 L317.607653,25.2685407 C317.607653,25.2685407 323.389805,23.8744144 323.915455,18.8207062 C321.812854,19.866301 320.060687,21.0861616 320.060687,21.0861616 L318.30852,21.608959 C318.30852,21.608959 318.483736,17.9493772 317.782869,17.9493772 C317.082002,17.9493772 316.030702,18.6464404 315.855485,19.1692378 C315.680269,19.6920352 316.030702,20.73763 316.030702,20.73763 L310.949417,21.4346932 C310.949417,21.4346932 312.876801,23.0030854 313.402451,23.5258828 C313.928101,24.0486802 314.804185,25.0942749 314.804185,25.0942749 L315.154618,27.5339961 C315.154618,27.5339961 313.227234,28.4053251 312.876801,28.7538567 C312.526367,29.1023883 310.949417,31.5421095 313.928101,31.7163753 C314.453751,33.4590333 314.103318,33.8940007 314.103318,33.8940007 L314.103318,39.5583362 L310.862509,41.47526 L313.577668,44.7863101 L312.526367,95.1491258 L307.269865,95.5854874 L306.218565,111.966472 L297.107294,112.40144 L297.808161,38.3384756 Z" id="Fill-26" fill="#160E45" mask="url(#mask-6)"></path>
                        <polygon id="Fill-27" fill="#160E45" mask="url(#mask-6)" points="393 122 393 81 432 81 432 89.1988792 402.751384 89.1988792 402.751384 113.801121 432 113.801121 432 122"></polygon>
                        <path d="M444.751384,97.4005604 L464.251384,97.4005604 L464.251384,89.1988792 L444.751384,89.1988792 L444.751384,97.4005604 Z M435,122 L435,81 L474,81 L474,122 L464.251384,122 L464.251384,105.600841 L444.751384,105.600841 L444.751384,122 L435,122 Z" id="Fill-28" fill="#160E45" mask="url(#mask-6)"></path>
                        <path d="M485.75173,97.4005604 L505.252422,97.4005604 L505.252422,89.1988792 L485.75173,89.1988792 L485.75173,97.4005604 Z M476,122 L476,81 L515,81 L515,105.600841 L485.75173,105.600841 L485.75173,122 L476,122 Z" id="Fill-29" fill="#160E45" mask="url(#mask-6)"></path>
                        <polygon id="Fill-30" fill="#160E45" mask="url(#mask-6)" points="518 122 528 122 528 81 518 81"></polygon>
                        <polygon id="Fill-31" fill="#160E45" mask="url(#mask-6)" points="545.624135 122 545.624135 89.1988792 531 89.1988792 531 81 570 81 570 89.1988792 555.375865 89.1988792 555.375865 122"></polygon>
                        <path d="M581.750346,97.4005604 L601.251038,97.4005604 L601.251038,89.1988792 L581.750346,89.1988792 L581.750346,97.4005604 Z M572,122 L572,81 L611,81 L611,122 L601.251038,122 L601.251038,105.600841 L581.75173,105.600841 L581.75173,122 L572,122 Z" id="Fill-32" fill="#160E45" mask="url(#mask-6)"></path>
                        <polygon id="Fill-33" fill="#160E45" mask="url(#mask-6)" points="614 122 614 81 623.751384 81 623.751384 113.801121 653 113.801121 646.075646 122"></polygon>
                        <polygon id="Fill-34" fill="#160E45" mask="url(#mask-6)" points="149 149 149 131 167 131 167 149 162.500348 149 162.500348 135.502088 160.249826 135.502088 160.249826 149 155.750174 149 155.750174 135.502088 153.499652 135.502088 153.499652 149"></polygon>
                        <polygon id="Fill-35" fill="#160E45" mask="url(#mask-6)" points="168 149 168 131 172.499304 131 172.499304 144.502088 181.499304 144.502088 181.499304 131 186 131 186 149"></polygon>
                        <polygon id="Fill-36" fill="#160E45" mask="url(#mask-6)" points="187 149 187 144.502088 200.500696 144.502088 200.500696 142.250348 187 142.250348 187 131 205 131 205 135.502088 191.499304 135.502088 191.499304 137.749652 205 137.749652 205 149"></polygon>
                        <polygon id="Fill-37" fill="#160E45" mask="url(#mask-6)" points="207 149 211 149 211 131 207 131"></polygon>
                        <polygon id="Fill-38" fill="#160E45" mask="url(#mask-6)" points="212 149 212 131 230 131 230 135.502088 216.499652 135.502088 216.499652 144.502088 230 144.502088 230 149"></polygon>
                    </g>
                    <g id="Group-24" transform="translate(0.000000, 185.000000)">
                        <polygon id="Fill-1" fill="#160E45" points="0 162.5 655 162.5 655 51.5 0 51.5"></polygon>
                        <polygon id="Fill-2" fill="#A8D2C9" points="0 51.5 655 51.5 655 0.5 0 0.5"></polygon>
                        <polygon id="Fill-3" fill="#A8D2C9" points="0 51.5 655 51.5 655 0.5 0 0.5"></polygon>
                        <polygon id="Fill-4" fill="#A8D2C9" points="0 51.5 655 51.5 655 0.5 0 0.5"></polygon>
                        <polygon id="Fill-5" fill="#F2E7B6" points="133.658483 134.5 133.658483 99.8480944 126.675704 105.157985 122 96.9270868 134.777773 87.5 144 87.5 144 134.5"></polygon>
                        <polygon id="Fill-6" fill="#F2E7B6" points="170.966416 134.5 159.283694 134.5 173.316394 96.8606804 157 96.8606804 157 87.5 185 87.5 185 95.4661461"></polygon>
                        <g id="Group-23" transform="translate(203.000000, 85.500000)" fill="#F2E7B6">
                            <path d="M20.4571969,12.3835088 C20.4571969,11.0949123 20.2155843,10.0177193 19.7306209,9.15105263 C19.2456576,8.28526316 18.5199508,7.85192982 17.5517623,7.85192982 C16.5383801,7.85192982 15.7466209,8.3177193 15.1747466,9.25192982 C14.6028723,10.184386 14.3169351,11.2729825 14.3169351,12.5168421 C14.3169351,14.7396491 15.0643696,16.7826316 16.5618461,18.6484211 C17.5743592,17.9817544 18.4764953,17.1264912 19.2691236,16.0826316 C20.0608827,15.0387719 20.4571969,13.8063158 20.4571969,12.3835088 L20.4571969,12.3835088 Z M12.9298356,28.9782456 C12.3127675,29.3335088 11.6974377,30.0115789 11.0812387,31.0107018 C10.4641707,32.0098246 10.1565058,33.2659649 10.1565058,34.775614 C10.1565058,36.6414035 10.5745476,38.1194737 11.4115005,39.2080702 C12.2475843,40.2966667 13.3696052,40.8405263 14.7793016,40.8405263 C15.9230503,40.8405263 16.8251864,40.4975439 17.4857099,39.8080702 C18.1462335,39.1194737 18.6294586,38.4194737 18.9388618,37.7080702 L12.9298356,28.9782456 Z M26.6643801,48.6378947 L23.9571026,44.7063158 C23.0758251,46.0835088 21.7878042,47.2501754 20.0939089,48.2045614 C18.3991445,49.1598246 16.3410921,49.6378947 13.9206209,49.6378947 C9.82711309,49.6378947 6.59141675,48.4159649 4.21440105,45.9721053 C1.83651623,43.5291228 0.648442932,40.0194737 0.648442932,35.4422807 C0.648442932,32.2440351 1.37501885,29.5677193 2.82730157,27.4115789 C4.2804534,25.257193 6.12905026,23.58 8.37396126,22.38 C7.31712356,20.9580702 6.49233822,19.4370175 5.89786702,17.8150877 C5.30339581,16.1940351 5.00702932,14.4273684 5.00702932,12.5168421 C5.00702932,10.607193 5.32512356,8.88526316 5.96391937,7.35192982 C6.60184607,5.81947368 7.48225445,4.51947368 8.6051445,3.45280702 C9.72716545,2.38701754 11.0482126,1.56508772 12.5665476,0.987894737 C14.0857518,0.410701754 15.7248932,0.12122807 17.4857099,0.12122807 C19.1587466,0.12122807 20.6988094,0.376491228 22.1076366,0.887894737 C23.5164639,1.39929825 24.7384325,2.15368421 25.7726733,3.15368421 C26.8069141,4.15280702 27.6099717,5.37561404 28.1835843,6.81859649 C28.7545895,8.26333333 29.0413958,9.9177193 29.0413958,11.7835088 C29.0413958,13.2949123 28.8102126,14.6615789 28.3478461,15.8817544 C27.8854796,17.1054386 27.2579822,18.2264912 26.466223,19.2475439 C25.6735948,20.2703509 24.7592911,21.1922807 23.7259194,22.0142105 C22.6908094,22.8361404 21.6235424,23.602807 20.5232492,24.3133333 L24.4194691,29.7773684 L27.6542963,22.7808772 L37.6255948,22.7808772 L30.0982335,36.9747368 L38.4173539,48.6378947 L26.6643801,48.6378947 Z" id="Fill-7"></path>
                            <polygon id="Fill-9" points="66.6778545 48.6379825 66.6778545 13.8502632 59.6780429 19.1809649 54.990933 10.917807 67.7998754 1.45377193 77.0445979 1.45377193 77.0445979 48.6379825"></polygon>
                            <path d="M108.341682,14.1164912 C108.341682,12.3831579 107.967095,10.9507018 107.219661,9.81824561 C106.470488,8.68491228 105.391923,8.11824561 103.983964,8.11824561 C102.574268,8.11824561 101.50787,8.68491228 100.782163,9.81824561 C100.055587,10.9507018 99.6922995,12.3831579 99.6922995,14.1164912 C99.6922995,15.715614 100.076446,17.1375439 100.847347,18.3814035 C101.617378,19.6252632 102.663786,20.247193 103.983964,20.247193 C105.348467,20.247193 106.415734,19.6252632 107.186635,18.3814035 C107.956666,17.1375439 108.341682,15.715614 108.341682,14.1164912 M108.737996,34.7761404 C108.737996,32.7761404 108.297357,31.1436842 107.417818,29.8778947 C106.53654,28.6112281 105.391923,27.9787719 103.983964,27.9787719 C102.574268,27.9787719 101.430519,28.6112281 100.550111,29.8778947 C99.6688335,31.1436842 99.229933,32.7761404 99.229933,34.7761404 C99.229933,36.7314035 99.6479749,38.3410526 100.484928,39.6077193 C101.320142,40.874386 102.487357,41.5077193 103.983964,41.5077193 C105.524896,41.5077193 106.701671,40.874386 107.516896,39.6077193 C108.330383,38.3410526 108.737996,36.7314035 108.737996,34.7761404 M119.368949,35.3752632 C119.368949,37.4191228 119.00653,39.3077193 118.279954,41.0401754 C117.553378,42.7735088 116.529566,44.2726316 115.208519,45.5384211 C113.888341,46.8059649 112.281357,47.8050877 110.388436,48.5375439 C108.496383,49.2708772 106.36098,49.6375439 103.983964,49.6375439 C101.650404,49.6375439 99.5488963,49.2708772 97.6777026,48.5375439 C95.8065089,47.8050877 94.2221215,46.8059649 92.9245403,45.5384211 C91.6252209,44.2726316 90.6231372,42.7735088 89.9200272,41.0401754 C89.2151791,39.3077193 88.8631895,37.4191228 88.8631895,35.3752632 C88.8631895,33.7761404 89.0717759,32.342807 89.4906869,31.0770175 C89.9087288,29.8112281 90.4580063,28.6892982 91.1411267,27.7121053 C91.823378,26.7349123 92.6047079,25.9357895 93.4851162,25.3129825 C94.3655246,24.6910526 95.2676607,24.2024561 96.1923937,23.8463158 L96.1923937,23.7129825 C94.1230429,22.87 92.5377864,21.57 91.4383623,19.8147368 C90.3372,18.0594737 89.7870534,15.915614 89.7870534,13.3831579 C89.7870534,11.7401754 90.084289,10.1410526 90.6796293,8.58491228 C91.2732314,7.03052632 92.1536398,5.65333333 93.3199853,4.45245614 C94.4863309,3.25333333 95.9612105,2.28754386 97.7446241,1.55421053 C99.5262995,0.820877193 101.606949,0.454210526 103.983964,0.454210526 C106.36098,0.454210526 108.45119,0.820877193 110.2572,1.55421053 C112.061472,2.28754386 113.569378,3.25333333 114.780048,4.45245614 C115.990718,5.65333333 116.903284,7.03052632 117.520352,8.58491228 C118.136551,10.1410526 118.444216,11.7401754 118.444216,13.3831579 C118.444216,15.915614 117.8932,18.0594737 116.794645,19.8147368 C115.692614,21.57 114.129954,22.87 112.105797,23.7129825 L112.105797,23.8463158 C113.03053,24.2024561 113.931797,24.7015789 114.813074,25.3463158 C115.692614,25.9901754 116.473943,26.7901754 117.157064,27.7445614 C117.839315,28.7007018 118.379032,29.8112281 118.774477,31.0770175 C119.170792,32.342807 119.368949,33.7761404 119.368949,35.3752632" id="Fill-11"></path>
                            <polygon id="Fill-13" points="158.854439 48.6379825 148.026198 19.9142982 147.827172 19.9142982 148.091381 48.6379825 138.649371 48.6379825 138.649371 1.45377193 150.271109 1.45377193 161.034166 30.5774561 161.231454 30.5774561 161.034166 1.45377193 170.145915 1.45377193 170.145915 48.6379825"></polygon>
                            <path d="M201.641156,24.9126316 C201.641156,22.8696491 201.486454,20.9705263 201.179659,19.214386 C200.870255,17.46 200.420057,15.9389474 199.825585,14.6494737 C199.231983,13.3617544 198.49324,12.3503509 197.613701,11.6170175 C196.732423,10.8845614 195.698182,10.5178947 194.510109,10.5178947 C193.322036,10.5178947 192.275627,10.8845614 191.37436,11.6170175 C190.470486,12.3503509 189.723051,13.3617544 189.129449,14.6494737 C188.534109,15.9389474 188.09347,17.46 187.808402,19.214386 C187.521596,20.9705263 187.379062,22.8696491 187.379062,24.9126316 C187.379062,26.9564912 187.521596,28.8678947 187.808402,30.6442105 C188.09347,32.4222807 188.534109,33.9547368 189.129449,35.2424561 C189.723051,36.5319298 190.470486,37.5529825 191.37436,38.3082456 C192.275627,39.064386 193.322036,39.4407018 194.510109,39.4407018 C195.698182,39.4407018 196.732423,39.064386 197.613701,38.3082456 C198.49324,37.5529825 199.231983,36.5319298 199.825585,35.2424561 C200.420057,33.9547368 200.870255,32.4222807 201.179659,30.6442105 C201.486454,28.8678947 201.641156,26.9564912 201.641156,24.9126316 M212.470266,24.9126316 C212.470266,28.6450877 212.052224,32.055614 211.21614,35.1424561 C210.379187,38.2310526 209.191114,40.8635088 207.650182,43.0398246 C206.10925,45.2170175 204.226758,46.9047368 202.004444,48.1047368 C199.781261,49.3047368 197.283439,49.9038596 194.510109,49.9038596 C191.736779,49.9038596 189.238088,49.3047368 187.015774,48.1047368 C184.791721,46.9047368 182.910098,45.2170175 181.370036,43.0398246 C179.828235,40.8635088 178.640161,38.2310526 177.804077,35.1424561 C176.967125,32.055614 176.549952,28.6450877 176.549952,24.9126316 C176.549952,21.1801754 176.956695,17.7933333 177.771051,14.7494737 C178.585407,11.7064912 179.762182,9.10736842 181.304852,6.95210526 C182.844046,4.7977193 184.726538,3.13192982 186.949721,1.95385965 C189.172036,0.776666667 191.692454,0.187192982 194.510109,0.187192982 C197.283439,0.187192982 199.781261,0.776666667 202.004444,1.95385965 C204.226758,3.13192982 206.10925,4.7977193 207.650182,6.95210526 C209.191114,9.10736842 210.379187,11.7064912 211.21614,14.7494737 C212.052224,17.7933333 212.470266,21.1801754 212.470266,24.9126316" id="Fill-15"></path>
                            <polygon id="Fill-17" points="239.345579 48.6379825 225.941296 48.6379825 214.64982 1.45377193 226.60182 1.45377193 232.940239 35.9748246 233.072343 35.9748246 239.345579 1.45377193 250.834343 1.45377193"></polygon>
                            <polygon id="Fill-19" points="278.698269 48.6379825 278.698269 13.8502632 271.698458 19.1809649 267.011348 10.917807 279.82029 1.45377193 289.065013 1.45377193 289.065013 48.6379825"></polygon>
                            <path d="M310.788329,17.1823684 C310.788329,19.4928947 311.239397,21.3472807 312.142402,22.7472807 C313.043669,24.1455263 314.287365,24.8455263 315.872622,24.8455263 C317.36836,24.8455263 318.612926,24.1358772 319.603711,22.7139474 C320.593627,21.2920175 321.08902,19.4481579 321.08902,17.1823684 C321.08902,14.9157018 320.604057,13.0832456 319.636737,11.6832456 C318.66681,10.2841228 317.434413,9.585 315.938674,9.585 C314.396873,9.585 313.154046,10.2841228 312.207585,11.6832456 C311.261125,13.0832456 310.788329,14.9157018 310.788329,17.1823684 M312.967187,32.3104386 C310.897837,32.3104386 309.093564,31.9104386 307.552632,31.1104386 C306.011701,30.3113158 304.72368,29.2341228 303.690308,27.8779825 C302.655198,26.5235965 301.884297,24.9130702 301.379345,23.0472807 C300.872653,21.180614 300.619742,19.180614 300.619742,17.0490351 C300.619742,14.339386 301.016057,11.9499123 301.807816,9.885 C302.600444,7.81833333 303.690308,6.08587719 305.076538,4.68587719 C306.462769,3.28675439 308.090612,2.23149123 309.962674,1.52096491 C311.832999,0.810438596 313.847596,0.454298246 316.004727,0.454298246 C318.160119,0.454298246 320.174716,0.820964912 322.04591,1.55429825 C323.916235,2.28763158 325.534517,3.35254386 326.89902,4.75254386 C328.262653,6.15254386 329.331659,7.885 330.102559,9.95078947 C330.870852,12.0165789 331.257606,14.3832456 331.257606,17.0490351 C331.257606,19.9376316 330.88302,22.5367544 330.134716,24.8455263 C329.385543,27.1569298 328.439952,29.3771053 327.295334,31.5104386 L318.380873,48.6376316 L306.298507,48.6376316 L315.476308,31.9104386 L315.410255,31.8437719 C315.188632,31.9771053 314.826214,32.0885088 314.320392,32.1771053 C313.813701,32.2665789 313.363502,32.3104386 312.967187,32.3104386" id="Fill-21"></path>
                        </g>
                    </g>
                </g>
                <g id="Group-23" transform="translate(146.000000, 192.000000)">
                    <g id="Group-3" transform="translate(0.000000, 5.664100)">
                        <mask id="mask-8" fill="white">
                            <use xlink:href="#path-7"></use>
                        </mask>
                        <g id="Clip-2"></g>
                        <path d="M12.6406,23.1191 C11.6366,23.7061 10.3576,24.0001 8.8006,24.0001 C7.4766,24.0001 6.2776,23.7061 5.2006,23.1191 C4.1226,22.5331 3.2006,21.7121 2.4316,20.6551 C1.6636,19.5991 1.0666,18.3411 0.6406,16.8801 C0.2126,15.4191 -0.0004,13.8131 -0.0004,12.0631 C-0.0004,10.2931 0.2126,8.6721 0.6406,7.1991 C1.0666,5.7271 1.6636,4.4691 2.4316,3.4241 C3.2006,2.3791 4.1226,1.5671 5.2006,0.9911 C6.2776,0.4161 7.4766,0.1281 8.8006,0.1281 C10.3146,0.1281 11.5786,0.3991 12.5916,0.9431 C13.6056,1.4871 14.4206,2.1651 15.0396,2.9751 L12.2876,6.6871 C11.9046,6.1761 11.4726,5.7701 10.9926,5.4721 C10.5116,5.1731 9.9096,5.0231 9.1836,5.0231 C8.5006,5.0231 7.9096,5.2051 7.4086,5.5671 C6.9066,5.9311 6.4806,6.4271 6.1276,7.0561 C5.7756,7.6851 5.5146,8.4311 5.3436,9.2961 C5.1736,10.1591 5.0876,11.0831 5.0876,12.0631 C5.0876,13.0451 5.1736,13.9631 5.3436,14.8151 C5.5146,15.6691 5.7756,16.4161 6.1276,17.0561 C6.4806,17.6951 6.9116,18.1971 7.4236,18.5591 C7.9356,18.9231 8.5336,19.1031 9.2166,19.1031 C9.8986,19.1031 10.4956,18.9321 11.0076,18.5921 C11.5196,18.2511 11.9256,17.8451 12.2246,17.3761 L15.0726,20.9281 C14.4526,21.8031 13.6426,22.5331 12.6406,23.1191" id="Fill-1" fill="#160E45" mask="url(#mask-8)"></path>
                    </g>
                    <path d="M43.5518,11.3282 L43.4238,11.3282 L41.5038,20.9602 L45.3758,20.9602 L43.5518,11.3282 Z M46.9438,29.0562 L46.0158,24.9282 L40.9278,24.9282 L39.9998,29.0562 L34.8798,29.0562 L40.3838,6.3992 L46.8168,6.3992 L52.2878,29.0562 L46.9438,29.0562 Z" id="Fill-4" fill="#160E45"></path>
                    <path d="M83.4238,13.5996 C83.4238,12.5756 83.1778,11.8396 82.6878,11.3916 C82.1968,10.9436 81.5998,10.7196 80.8958,10.7196 L79.2638,10.7196 L79.2638,16.6396 L80.8958,16.6396 C81.5998,16.6396 82.1968,16.3786 82.6878,15.8556 C83.1778,15.3326 83.4238,14.5806 83.4238,13.5996 M88.2238,13.5036 C88.2238,14.7626 88.0308,15.8506 87.6478,16.7676 C87.2638,17.6856 86.7518,18.4426 86.1118,19.0396 C85.4718,19.6366 84.7458,20.0796 83.9358,20.3676 C83.1248,20.6556 82.3038,20.7996 81.4718,20.7996 L79.2638,20.7996 L79.2638,29.0556 L74.2398,29.0556 L74.2398,6.3996 L81.2788,6.3996 C82.0898,6.3996 82.9058,6.5176 83.7278,6.7516 C84.5488,6.9866 85.2948,7.3756 85.9678,7.9196 C86.6398,8.4636 87.1838,9.1946 87.5998,10.1116 C88.0158,11.0296 88.2238,12.1596 88.2238,13.5036" id="Fill-6" fill="#160E45"></path>
                    <path d="M114.4639,4.6075 L111.0079,4.6075 L113.8879,0.0005 L118.0479,0.0005 L114.4639,4.6075 Z M110.9429,29.0555 L116.0949,29.0555 L116.0949,6.3995 L110.9429,6.3995 L110.9429,29.0555 Z" id="Fill-8" fill="#160E45"></path>
                    <polygon id="Fill-10" fill="#160E45" points="147.2637 10.752 147.2637 29.056 142.2397 29.056 142.2397 10.752 138.0787 10.752 138.0787 6.399 151.4237 6.399 151.4237 10.752"></polygon>
                    <g id="Group-14" transform="translate(173.000000, 5.664100)">
                        <mask id="mask-10" fill="white">
                            <use xlink:href="#path-9"></use>
                        </mask>
                        <g id="Clip-13"></g>
                        <path d="M14.918,18.5273 C14.631,19.6153 14.178,20.5653 13.559,21.3763 C12.939,22.1863 12.14,22.8263 11.158,23.2963 C10.178,23.7643 8.993,24.0003 7.606,24.0003 C6.22,24.0003 5.047,23.7643 4.086,23.2963 C3.127,22.8263 2.343,22.1863 1.734,21.3763 C1.127,20.5653 0.689,19.6153 0.423,18.5273 C0.156,17.4393 0.022,16.2663 0.022,15.0073 L0.022,0.7353 L5.175,0.7353 L5.175,14.5593 C5.175,15.1993 5.211,15.7973 5.287,16.3513 C5.361,16.9063 5.494,17.3813 5.687,17.7753 C5.879,18.1713 6.135,18.4853 6.455,18.7193 C6.774,18.9553 7.19,19.0713 7.703,19.0713 C8.215,19.0713 8.631,18.9553 8.951,18.7193 C9.271,18.4853 9.527,18.1713 9.719,17.7753 C9.91,17.3813 10.043,16.9063 10.119,16.3513 C10.193,15.7973 10.231,15.1993 10.231,14.5593 L10.231,0.7353 L15.351,0.7353 L15.351,15.0073 C15.351,16.2663 15.207,17.4393 14.918,18.5273" id="Fill-12" fill="#160E45" mask="url(#mask-10)"></path>
                    </g>
                    <polygon id="Fill-15" fill="#160E45" points="211.998 29.0557 211.998 6.3997 217.183 6.3997 217.183 24.3197 223.23 24.3197 223.23 29.0557"></polygon>
                    <path d="M255.8066,17.6641 C255.8066,16.6831 255.7306,15.7701 255.5816,14.9281 C255.4326,14.0851 255.2136,13.3541 254.9256,12.7351 C254.6386,12.1171 254.2816,11.6321 253.8536,11.2791 C253.4276,10.9281 252.9256,10.7521 252.3496,10.7521 C251.7736,10.7521 251.2676,10.9281 250.8296,11.2791 C250.3926,11.6321 250.0306,12.1171 249.7426,12.7351 C249.4536,13.3541 249.2406,14.0851 249.1016,14.9281 C248.9626,15.7701 248.8946,16.6831 248.8946,17.6641 C248.8946,18.6451 248.9626,19.5621 249.1016,20.4161 C249.2406,21.2691 249.4536,22.0051 249.7426,22.6241 C250.0306,23.2421 250.3926,23.7331 250.8296,24.0961 C251.2676,24.4591 251.7736,24.6401 252.3496,24.6401 C252.9256,24.6401 253.4276,24.4591 253.8536,24.0961 C254.2816,23.7331 254.6386,23.2421 254.9256,22.6241 C255.2136,22.0051 255.4326,21.2691 255.5816,20.4161 C255.7306,19.5621 255.8066,18.6451 255.8066,17.6641 M261.0546,17.6641 C261.0546,19.4561 260.8516,21.0931 260.4466,22.5751 C260.0406,24.0591 259.4646,25.3221 258.7186,26.3671 C257.9706,27.4131 257.0586,28.2241 255.9826,28.8001 C254.9046,29.3761 253.6946,29.6641 252.3496,29.6641 C251.0056,29.6641 249.7946,29.3761 248.7186,28.8001 C247.6406,28.2241 246.7286,27.4131 245.9826,26.3671 C245.2346,25.3221 244.6596,24.0591 244.2536,22.5751 C243.8486,21.0931 243.6466,19.4561 243.6466,17.6641 C243.6466,15.8721 243.8436,14.2451 244.2386,12.7831 C244.6326,11.3221 245.2026,10.0741 245.9506,9.0401 C246.6976,8.0051 247.6086,7.2051 248.6856,6.6401 C249.7636,6.0741 250.9846,5.7921 252.3496,5.7921 C253.6946,5.7921 254.9046,6.0741 255.9826,6.6401 C257.0586,7.2051 257.9706,8.0051 258.7186,9.0401 C259.4646,10.0741 260.0406,11.3221 260.4466,12.7831 C260.8516,14.2451 261.0546,15.8721 261.0546,17.6641" id="Fill-17" fill="#160E45"></path>
                    <polygon id="Fill-19" fill="#160E45" points="315.6777 29.0557 315.6777 12.3517 312.2857 14.9117 310.0137 10.9437 316.2227 6.3997 320.7017 6.3997 320.7017 29.0557"></polygon>
                    <path d="M356.1279,17.7276 C356.1279,16.9816 356.1009,16.1816 356.0479,15.3286 C355.9939,14.4746 355.8829,13.6856 355.7119,12.9596 C355.5409,12.2346 355.3069,11.6316 355.0079,11.1516 C354.7089,10.6716 354.3039,10.4316 353.7909,10.4316 C353.2789,10.4316 352.8739,10.6716 352.5759,11.1516 C352.2769,11.6316 352.0419,12.2346 351.8709,12.9596 C351.7009,13.6856 351.5889,14.4746 351.5349,15.3286 C351.4819,16.1816 351.4549,16.9816 351.4549,17.7276 C351.4549,18.4966 351.4819,19.3066 351.5349,20.1596 C351.5889,21.0126 351.7009,21.7966 351.8709,22.5116 C352.0419,23.2266 352.2769,23.8236 352.5759,24.3036 C352.8739,24.7836 353.2789,25.0236 353.7909,25.0236 C354.3039,25.0236 354.7089,24.7836 355.0079,24.3036 C355.3069,23.8236 355.5409,23.2266 355.7119,22.5116 C355.8829,21.7966 355.9939,21.0126 356.0479,20.1596 C356.1009,19.3066 356.1279,18.4966 356.1279,17.7276 M361.2479,17.7276 C361.2479,19.0076 361.1469,20.3406 360.9429,21.7276 C360.7399,23.1146 360.3669,24.3896 359.8239,25.5516 C359.2789,26.7146 358.5219,27.6686 357.5519,28.4156 C356.5799,29.1626 355.3279,29.5366 353.7909,29.5366 C352.2559,29.5366 351.0019,29.1626 350.0309,28.4156 C349.0609,27.6686 348.3039,26.7146 347.7599,25.5516 C347.2159,24.3896 346.8479,23.1146 346.6559,21.7276 C346.4639,20.3406 346.3669,19.0076 346.3669,17.7276 C346.3669,16.4476 346.4639,15.1146 346.6559,13.7276 C346.8479,12.3406 347.2159,11.0666 347.7599,9.9036 C348.3039,8.7416 349.0609,7.7876 350.0309,7.0396 C351.0019,6.2926 352.2559,5.9196 353.7909,5.9196 C355.3279,5.9196 356.5799,6.2926 357.5519,7.0396 C358.5219,7.7876 359.2789,8.7416 359.8239,9.9036 C360.3669,11.0666 360.7399,12.3406 360.9429,13.7276 C361.1469,15.1146 361.2479,16.4476 361.2479,17.7276" id="Fill-21" fill="#160E45"></path>
                </g>
            </g>
        </g>
    </g>
</svg>