<?xml version="1.0" encoding="UTF-8"?>
<svg width="239px" height="71px" viewBox="0 0 239 71" version="1.1" xmlns="http://www.w3.org/2000/svg" xmlns:xlink="http://www.w3.org/1999/xlink">
    <!-- Generator: Sketch 54.1 (76490) - https://sketchapp.com -->
    <title>Group 21</title>
    <desc>Created with Sketch.</desc>
    <defs>
        <polygon id="path-1" points="0 0.217014881 71.7800571 0.217014881 71.7800571 71 0 71"></polygon>
        <polygon id="path-3" points="0.0654315789 0.268126316 7.75789474 0.268126316 7.75789474 7.96117895 0.0654315789 7.96117895"></polygon>
        <polygon id="path-5" points="0 0.217014881 71.7800571 0.217014881 71.7800571 71 0 71"></polygon>
        <polygon id="path-7" points="0.0654315789 0.268126316 7.75789474 0.268126316 7.75789474 7.96117895 0.0654315789 7.96117895"></polygon>
    </defs>
    <g id="DESKTOP" stroke="none" stroke-width="1" fill="none" fill-rule="evenodd" opacity="0.341192336">
        <g id="01-DESKTOP-ANTES" transform="translate(-1530.000000, -2446.000000)">
            <g id="LINE-UP" transform="translate(-716.000000, 1422.000000)">
                <g id="Group-21" transform="translate(2246.000000, 1024.000000)">
                    <g id="Group-3">
                        <mask id="mask-2" fill="white">
                            <use xlink:href="#path-1"></use>
                        </mask>
                        <g id="Clip-2"></g>
                        <path d="M57.1199143,31.592253 C45.5510571,24.817247 26.4684857,24.1943065 15.4246286,27.4996101 C13.6507714,28.0304196 11.7753429,27.0427589 11.2383429,25.2943839 C10.7004857,23.5443185 11.7007714,21.6962054 13.4759143,21.1645506 C26.1534857,17.3698542 47.2280571,18.1030982 60.5463429,25.8987292 C62.1419143,26.8327173 62.6647714,28.864247 61.7193429,30.4346994 C60.7730571,32.0076875 58.7112,32.5262411 57.1199143,31.592253 M56.7410571,41.6269196 C55.9297714,42.925628 54.2077714,43.3330327 52.8920571,42.5355506 C43.2474857,36.6890387 28.5397714,34.9956042 17.1290571,38.4112113 C15.6496286,38.852003 14.0866286,38.0295863 13.6374857,36.5732411 C13.1913429,35.1139375 14.0257714,33.5751815 15.5030571,33.1318542 C28.5384857,29.2310804 44.7427714,31.1201875 55.8204857,37.8334911 C57.1357714,38.6322411 57.5497714,40.3311696 56.7410571,41.6269196 M52.3494857,51.2639018 C51.7044857,52.306503 50.3274857,52.6336101 49.2736286,51.9984137 C40.8457714,46.9185327 30.2377714,45.771122 17.7449143,48.5853423 C16.5410571,48.8575089 15.3414857,48.1132768 15.0667714,46.9269851 C14.7907714,45.7398482 15.5424857,44.5565149 16.7489143,44.2860387 C30.4203429,41.203878 42.1473429,42.5296339 51.6076286,48.2307649 C52.6623429,48.8659613 52.9944857,50.2242589 52.3494857,51.2639018 M35.8897714,0.217014881 C16.0687714,0.217014881 -8.57142857e-05,16.0618482 -8.57142857e-05,35.6079792 C-8.57142857e-05,55.155378 16.0687714,71.0002113 35.8897714,71.0002113 C55.7116286,71.0002113 71.7800571,55.155378 71.7800571,35.6079792 C71.7800571,16.0618482 55.7116286,0.217014881 35.8897714,0.217014881" id="Fill-1" fill="#FFFFFF" mask="url(#mask-2)"></path>
                    </g>
                    <path d="M97.6464792,33.6099026 C91.6105436,32.1683032 90.5351134,31.1565077 90.5351134,29.0304831 C90.5351134,27.0219438 92.423796,25.6706534 95.231771,25.6706534 C97.953745,25.6706534 100.65234,26.6970822 103.482442,28.8101458 C103.568025,28.8741147 103.675318,28.8996186 103.78094,28.8828948 C103.886563,28.8670071 103.979661,28.8093096 104.041866,28.7215092 L106.989279,24.5606051 C107.110349,24.3891852 107.077368,24.1529603 106.914133,24.0220958 C103.546316,21.3157521 99.7539217,20 95.3211119,20 C88.8034035,20 84.2507768,23.9167353 84.2507768,29.5217474 C84.2507768,35.5318958 88.1780175,37.6600109 94.9645834,39.3027151 C100.740846,40.634773 101.715663,41.7510928 101.715663,43.7470892 C101.715663,45.9588238 99.7443196,47.3335276 96.571884,47.3335276 C93.0487645,47.3335276 90.1748276,46.1444589 86.9593914,43.3561682 C86.8796526,43.2876002 86.7706901,43.2558249 86.6696598,43.2612601 C86.5632022,43.2704583 86.4659292,43.3197937 86.3982974,43.4013227 L83.0935203,47.3397991 C82.9549168,47.5036932 82.9724509,47.747862 83.132346,47.8891789 C86.8733904,51.2339571 91.47361,53 96.4382902,53 C103.461985,53 108,49.1568498 108,43.2085799 C108,38.1813782 105.000819,35.4010313 97.6464792,33.6099026" id="Fill-4" fill="#FFFFFF"></path>
                    <path d="M129.510454,40.0715012 C129.510454,44.4407178 126.814273,47.4896589 122.953655,47.4896589 C119.137011,47.4896589 116.258038,44.3021491 116.258038,40.0715012 C116.258038,35.8412837 119.137011,32.6537739 122.953655,32.6537739 C126.752193,32.6537739 129.510454,35.7724297 129.510454,40.0715012 M124.245701,27 C121.102025,27 118.523537,28.2359293 116.397287,30.7684654 L116.397287,27.9179099 C116.397287,27.6932737 116.214495,27.5099499 115.989023,27.5099499 L110.407833,27.5099499 C110.182361,27.5099499 110,27.6932737 110,27.9179099 L110,59.5916097 C110,59.8166762 110.182361,60 110.407833,60 L115.989023,60 C116.214495,60 116.397287,59.8166762 116.397287,59.5916097 L116.397287,49.5940092 C118.523968,51.9763575 121.102887,53.1399901 124.245701,53.1399901 C130.086853,53.1399901 136,48.6515701 136,40.0715012 C136,31.489711 130.086853,27 124.245701,27" id="Fill-6" fill="#FFFFFF"></path>
                    <path d="M150.523902,47.3873735 C146.490503,47.3873735 143.449701,44.2010319 143.449701,39.9769291 C143.449701,35.7353096 146.385334,32.656632 150.430901,32.656632 C154.490375,32.656632 157.552038,35.8429736 157.552038,40.0696398 C157.552038,44.3108321 154.595979,47.3873735 150.523902,47.3873735 M150.523902,27 C142.9408,27 137,32.7403707 137,40.0696398 C137,47.3198699 142.899948,53 150.430901,53 C158.040948,53 164,47.2784278 164,39.9769291 C164,32.7002103 158.081799,27 150.523902,27" id="Fill-8" fill="#FFFFFF"></path>
                    <path d="M180.593548,27.6316703 L174.466237,27.6316703 L174.466237,21.4056368 C174.466237,21.1820878 174.284301,21 174.059785,21 L168.491613,21 C168.266667,21 168.083441,21.1820878 168.083441,21.4056368 L168.083441,27.6316703 L165.405591,27.6316703 C165.181505,27.6316703 165,27.8137581 165,28.0373072 L165,32.7929607 C165,33.0165097 165.181505,33.1985975 165.405591,33.1985975 L168.083441,33.1985975 L168.083441,45.5049088 C168.083441,50.4781273 170.573763,53 175.486452,53 C177.483871,53 179.140645,52.5900888 180.702796,51.7095706 C180.829677,51.639471 180.908387,51.5035464 180.908387,51.359073 L180.908387,46.8299606 C180.908387,46.690189 180.835269,46.5581113 180.715269,46.4850197 C180.593548,46.4093635 180.442581,46.4055166 180.31828,46.46664 C179.245591,47.0030722 178.208602,47.2505577 177.049892,47.2505577 C175.263226,47.2505577 174.466237,46.4448407 174.466237,44.6376411 L174.466237,33.1985975 L180.593548,33.1985975 C180.818495,33.1985975 181,33.0165097 181,32.7929607 L181,28.0373072 C181,27.8137581 180.818495,27.6316703 180.593548,27.6316703" id="Fill-10" fill="#FFFFFF"></path>
                    <path d="M201.301046,27.5573272 L201.301046,26.7912852 C201.301046,24.5376914 202.16223,23.5327162 204.093707,23.5327162 C205.245082,23.5327162 206.170279,23.7626573 207.206858,24.1090676 C207.334457,24.1497461 207.467603,24.1291927 207.571304,24.0529739 C207.677565,23.9763269 207.738163,23.8534347 207.738163,23.7232633 L207.738163,19.0516486 C207.738163,18.873091 207.623367,18.7146586 207.452667,18.6624187 C206.358049,18.3357054 204.957451,18 202.859969,18 C197.756876,18 195.059807,20.8838978 195.059807,26.335685 L195.059807,27.5089411 L192.405414,27.5089411 C192.18265,27.5089411 192,27.6913525 192,27.9148706 L192,32.7038109 C192,32.9277573 192.18265,33.1101686 192.405414,33.1101686 L195.059807,33.1101686 L195.059807,52.1259099 C195.059807,52.3498562 195.239896,52.5322676 195.462234,52.5322676 L200.98781,52.5322676 C201.210575,52.5322676 201.392371,52.3498562 201.392371,52.1259099 L201.392371,33.1101686 L206.550941,33.1101686 L214.453096,52.1211998 C213.556065,54.1187325 212.673543,54.5156699 211.469677,54.5156699 C210.496257,54.5156699 209.471201,54.2244969 208.423099,53.6490019 C208.32452,53.594621 208.208017,53.5856289 208.101329,53.6186 C207.995921,53.655853 207.90673,53.734641 207.862348,53.8378362 L205.989336,57.9596477 C205.900145,58.1544767 205.976534,58.3835614 206.163878,58.4841873 C208.118399,59.546969 209.883016,60 212.064142,60 C216.143458,60 218.398412,58.0932447 220.387074,52.9634606 L229.972336,28.110556 C230.020132,27.9855229 230.006049,27.8446465 229.929661,27.7337439 C229.853699,27.6236976 229.730794,27.5573272 229.597221,27.5573272 L223.845466,27.5573272 C223.673486,27.5573272 223.519002,27.6673735 223.462671,27.8296597 L217.570515,44.7168403 L211.116754,27.8185266 C211.057435,27.6613788 210.907219,27.5573272 210.739079,27.5573272 L201.301046,27.5573272 Z" id="Fill-12" fill="#FFFFFF"></path>
                    <path d="M188.616815,27 L183.383994,27 C183.172191,27 183,27.1824192 183,27.4063753 L183,51.594053 C183,51.8175808 183.172191,52 183.383994,52 L188.616815,52 C188.827809,52 189,51.8175808 189,51.594053 L189,27.4063753 C189,27.1824192 188.827809,27 188.616815,27" id="Fill-14" fill="#FFFFFF"></path>
                    <path d="M186.001507,17 C183.792517,17 182,18.7886914 182,20.9982768 C182,23.2091546 183.792517,25 186.001507,25 C188.209637,25 190,23.2091546 190,20.9982768 C190,18.7886914 188.209637,17 186.001507,17" id="Fill-16" fill="#FFFFFF"></path>
                    <g id="Group-20" transform="translate(231.000000, 28.000000)">
                        <mask id="mask-4" fill="white">
                            <use xlink:href="#path-3"></use>
                        </mask>
                        <g id="Clip-19"></g>
                        <path d="M4.1248,2.68033684 L3.12606316,2.68033684 L3.12606316,3.95402105 L4.1248,3.95402105 C4.62374737,3.95402105 4.92143158,3.70981053 4.92143158,3.31654737 C4.92143158,2.90223158 4.62374737,2.68033684 4.1248,2.68033684 M4.77237895,4.49717895 L5.85743158,6.01633684 L4.94248421,6.01633684 L3.96564211,4.62307368 L3.12606316,4.62307368 L3.12606316,6.01633684 L2.36016842,6.01633684 L2.36016842,1.98938947 L4.15595789,1.98938947 C5.09153684,1.98938947 5.70669474,2.46812632 5.70669474,3.27402105 C5.70669474,3.93423158 5.32564211,4.3376 4.77237895,4.49717895 M3.92185263,0.6496 C1.95722105,0.6496 0.469642105,2.21128421 0.469642105,4.12454737 C0.469642105,6.03612632 1.94627368,7.57717895 3.90164211,7.57717895 C5.86627368,7.57717895 7.35469474,6.01633684 7.35469474,4.10223158 C7.35469474,2.19065263 5.87722105,0.6496 3.92185263,0.6496 M3.90164211,7.96117895 C1.74458947,7.96117895 0.0654315789,6.22854737 0.0654315789,4.12454737 C0.0654315789,2.02012632 1.76606316,0.268126316 3.92185263,0.268126316 C6.07932632,0.268126316 7.75806316,2.00033684 7.75806316,4.10223158 C7.75806316,6.20665263 6.05869474,7.96117895 3.90164211,7.96117895" id="Fill-18" fill="#FFFFFF" mask="url(#mask-4)"></path>
                    </g>
                </g>
            </g>
            <g id="Group-22" transform="translate(1530.000000, 2446.000000)">
                <g id="Group-21">
                    <g id="Group-3">
                        <mask id="mask-6" fill="white">
                            <use xlink:href="#path-5"></use>
                        </mask>
                        <g id="Clip-2"></g>
                        <path d="M57.1199143,31.592253 C45.5510571,24.817247 26.4684857,24.1943065 15.4246286,27.4996101 C13.6507714,28.0304196 11.7753429,27.0427589 11.2383429,25.2943839 C10.7004857,23.5443185 11.7007714,21.6962054 13.4759143,21.1645506 C26.1534857,17.3698542 47.2280571,18.1030982 60.5463429,25.8987292 C62.1419143,26.8327173 62.6647714,28.864247 61.7193429,30.4346994 C60.7730571,32.0076875 58.7112,32.5262411 57.1199143,31.592253 M56.7410571,41.6269196 C55.9297714,42.925628 54.2077714,43.3330327 52.8920571,42.5355506 C43.2474857,36.6890387 28.5397714,34.9956042 17.1290571,38.4112113 C15.6496286,38.852003 14.0866286,38.0295863 13.6374857,36.5732411 C13.1913429,35.1139375 14.0257714,33.5751815 15.5030571,33.1318542 C28.5384857,29.2310804 44.7427714,31.1201875 55.8204857,37.8334911 C57.1357714,38.6322411 57.5497714,40.3311696 56.7410571,41.6269196 M52.3494857,51.2639018 C51.7044857,52.306503 50.3274857,52.6336101 49.2736286,51.9984137 C40.8457714,46.9185327 30.2377714,45.771122 17.7449143,48.5853423 C16.5410571,48.8575089 15.3414857,48.1132768 15.0667714,46.9269851 C14.7907714,45.7398482 15.5424857,44.5565149 16.7489143,44.2860387 C30.4203429,41.203878 42.1473429,42.5296339 51.6076286,48.2307649 C52.6623429,48.8659613 52.9944857,50.2242589 52.3494857,51.2639018 M35.8897714,0.217014881 C16.0687714,0.217014881 -8.57142857e-05,16.0618482 -8.57142857e-05,35.6079792 C-8.57142857e-05,55.155378 16.0687714,71.0002113 35.8897714,71.0002113 C55.7116286,71.0002113 71.7800571,55.155378 71.7800571,35.6079792 C71.7800571,16.0618482 55.7116286,0.217014881 35.8897714,0.217014881" id="Fill-1" fill="#FFFFFF" mask="url(#mask-6)"></path>
                    </g>
                    <path d="M97.6464792,33.6099026 C91.6105436,32.1683032 90.5351134,31.1565077 90.5351134,29.0304831 C90.5351134,27.0219438 92.423796,25.6706534 95.231771,25.6706534 C97.953745,25.6706534 100.65234,26.6970822 103.482442,28.8101458 C103.568025,28.8741147 103.675318,28.8996186 103.78094,28.8828948 C103.886563,28.8670071 103.979661,28.8093096 104.041866,28.7215092 L106.989279,24.5606051 C107.110349,24.3891852 107.077368,24.1529603 106.914133,24.0220958 C103.546316,21.3157521 99.7539217,20 95.3211119,20 C88.8034035,20 84.2507768,23.9167353 84.2507768,29.5217474 C84.2507768,35.5318958 88.1780175,37.6600109 94.9645834,39.3027151 C100.740846,40.634773 101.715663,41.7510928 101.715663,43.7470892 C101.715663,45.9588238 99.7443196,47.3335276 96.571884,47.3335276 C93.0487645,47.3335276 90.1748276,46.1444589 86.9593914,43.3561682 C86.8796526,43.2876002 86.7706901,43.2558249 86.6696598,43.2612601 C86.5632022,43.2704583 86.4659292,43.3197937 86.3982974,43.4013227 L83.0935203,47.3397991 C82.9549168,47.5036932 82.9724509,47.747862 83.132346,47.8891789 C86.8733904,51.2339571 91.47361,53 96.4382902,53 C103.461985,53 108,49.1568498 108,43.2085799 C108,38.1813782 105.000819,35.4010313 97.6464792,33.6099026" id="Fill-4" fill="#FFFFFF"></path>
                    <path d="M129.510454,40.0715012 C129.510454,44.4407178 126.814273,47.4896589 122.953655,47.4896589 C119.137011,47.4896589 116.258038,44.3021491 116.258038,40.0715012 C116.258038,35.8412837 119.137011,32.6537739 122.953655,32.6537739 C126.752193,32.6537739 129.510454,35.7724297 129.510454,40.0715012 M124.245701,27 C121.102025,27 118.523537,28.2359293 116.397287,30.7684654 L116.397287,27.9179099 C116.397287,27.6932737 116.214495,27.5099499 115.989023,27.5099499 L110.407833,27.5099499 C110.182361,27.5099499 110,27.6932737 110,27.9179099 L110,59.5916097 C110,59.8166762 110.182361,60 110.407833,60 L115.989023,60 C116.214495,60 116.397287,59.8166762 116.397287,59.5916097 L116.397287,49.5940092 C118.523968,51.9763575 121.102887,53.1399901 124.245701,53.1399901 C130.086853,53.1399901 136,48.6515701 136,40.0715012 C136,31.489711 130.086853,27 124.245701,27" id="Fill-6" fill="#FFFFFF"></path>
                    <path d="M150.523902,47.3873735 C146.490503,47.3873735 143.449701,44.2010319 143.449701,39.9769291 C143.449701,35.7353096 146.385334,32.656632 150.430901,32.656632 C154.490375,32.656632 157.552038,35.8429736 157.552038,40.0696398 C157.552038,44.3108321 154.595979,47.3873735 150.523902,47.3873735 M150.523902,27 C142.9408,27 137,32.7403707 137,40.0696398 C137,47.3198699 142.899948,53 150.430901,53 C158.040948,53 164,47.2784278 164,39.9769291 C164,32.7002103 158.081799,27 150.523902,27" id="Fill-8" fill="#FFFFFF"></path>
                    <path d="M180.593548,27.6316703 L174.466237,27.6316703 L174.466237,21.4056368 C174.466237,21.1820878 174.284301,21 174.059785,21 L168.491613,21 C168.266667,21 168.083441,21.1820878 168.083441,21.4056368 L168.083441,27.6316703 L165.405591,27.6316703 C165.181505,27.6316703 165,27.8137581 165,28.0373072 L165,32.7929607 C165,33.0165097 165.181505,33.1985975 165.405591,33.1985975 L168.083441,33.1985975 L168.083441,45.5049088 C168.083441,50.4781273 170.573763,53 175.486452,53 C177.483871,53 179.140645,52.5900888 180.702796,51.7095706 C180.829677,51.639471 180.908387,51.5035464 180.908387,51.359073 L180.908387,46.8299606 C180.908387,46.690189 180.835269,46.5581113 180.715269,46.4850197 C180.593548,46.4093635 180.442581,46.4055166 180.31828,46.46664 C179.245591,47.0030722 178.208602,47.2505577 177.049892,47.2505577 C175.263226,47.2505577 174.466237,46.4448407 174.466237,44.6376411 L174.466237,33.1985975 L180.593548,33.1985975 C180.818495,33.1985975 181,33.0165097 181,32.7929607 L181,28.0373072 C181,27.8137581 180.818495,27.6316703 180.593548,27.6316703" id="Fill-10" fill="#FFFFFF"></path>
                    <path d="M201.301046,27.5573272 L201.301046,26.7912852 C201.301046,24.5376914 202.16223,23.5327162 204.093707,23.5327162 C205.245082,23.5327162 206.170279,23.7626573 207.206858,24.1090676 C207.334457,24.1497461 207.467603,24.1291927 207.571304,24.0529739 C207.677565,23.9763269 207.738163,23.8534347 207.738163,23.7232633 L207.738163,19.0516486 C207.738163,18.873091 207.623367,18.7146586 207.452667,18.6624187 C206.358049,18.3357054 204.957451,18 202.859969,18 C197.756876,18 195.059807,20.8838978 195.059807,26.335685 L195.059807,27.5089411 L192.405414,27.5089411 C192.18265,27.5089411 192,27.6913525 192,27.9148706 L192,32.7038109 C192,32.9277573 192.18265,33.1101686 192.405414,33.1101686 L195.059807,33.1101686 L195.059807,52.1259099 C195.059807,52.3498562 195.239896,52.5322676 195.462234,52.5322676 L200.98781,52.5322676 C201.210575,52.5322676 201.392371,52.3498562 201.392371,52.1259099 L201.392371,33.1101686 L206.550941,33.1101686 L214.453096,52.1211998 C213.556065,54.1187325 212.673543,54.5156699 211.469677,54.5156699 C210.496257,54.5156699 209.471201,54.2244969 208.423099,53.6490019 C208.32452,53.594621 208.208017,53.5856289 208.101329,53.6186 C207.995921,53.655853 207.90673,53.734641 207.862348,53.8378362 L205.989336,57.9596477 C205.900145,58.1544767 205.976534,58.3835614 206.163878,58.4841873 C208.118399,59.546969 209.883016,60 212.064142,60 C216.143458,60 218.398412,58.0932447 220.387074,52.9634606 L229.972336,28.110556 C230.020132,27.9855229 230.006049,27.8446465 229.929661,27.7337439 C229.853699,27.6236976 229.730794,27.5573272 229.597221,27.5573272 L223.845466,27.5573272 C223.673486,27.5573272 223.519002,27.6673735 223.462671,27.8296597 L217.570515,44.7168403 L211.116754,27.8185266 C211.057435,27.6613788 210.907219,27.5573272 210.739079,27.5573272 L201.301046,27.5573272 Z" id="Fill-12" fill="#FFFFFF"></path>
                    <path d="M188.616815,27 L183.383994,27 C183.172191,27 183,27.1824192 183,27.4063753 L183,51.594053 C183,51.8175808 183.172191,52 183.383994,52 L188.616815,52 C188.827809,52 189,51.8175808 189,51.594053 L189,27.4063753 C189,27.1824192 188.827809,27 188.616815,27" id="Fill-14" fill="#FFFFFF"></path>
                    <path d="M186.001507,17 C183.792517,17 182,18.7886914 182,20.9982768 C182,23.2091546 183.792517,25 186.001507,25 C188.209637,25 190,23.2091546 190,20.9982768 C190,18.7886914 188.209637,17 186.001507,17" id="Fill-16" fill="#FFFFFF"></path>
                    <g id="Group-20" transform="translate(231.000000, 28.000000)">
                        <mask id="mask-8" fill="white">
                            <use xlink:href="#path-7"></use>
                        </mask>
                        <g id="Clip-19"></g>
                        <path d="M4.1248,2.68033684 L3.12606316,2.68033684 L3.12606316,3.95402105 L4.1248,3.95402105 C4.62374737,3.95402105 4.92143158,3.70981053 4.92143158,3.31654737 C4.92143158,2.90223158 4.62374737,2.68033684 4.1248,2.68033684 M4.77237895,4.49717895 L5.85743158,6.01633684 L4.94248421,6.01633684 L3.96564211,4.62307368 L3.12606316,4.62307368 L3.12606316,6.01633684 L2.36016842,6.01633684 L2.36016842,1.98938947 L4.15595789,1.98938947 C5.09153684,1.98938947 5.70669474,2.46812632 5.70669474,3.27402105 C5.70669474,3.93423158 5.32564211,4.3376 4.77237895,4.49717895 M3.92185263,0.6496 C1.95722105,0.6496 0.469642105,2.21128421 0.469642105,4.12454737 C0.469642105,6.03612632 1.94627368,7.57717895 3.90164211,7.57717895 C5.86627368,7.57717895 7.35469474,6.01633684 7.35469474,4.10223158 C7.35469474,2.19065263 5.87722105,0.6496 3.92185263,0.6496 M3.90164211,7.96117895 C1.74458947,7.96117895 0.0654315789,6.22854737 0.0654315789,4.12454737 C0.0654315789,2.02012632 1.76606316,0.268126316 3.92185263,0.268126316 C6.07932632,0.268126316 7.75806316,2.00033684 7.75806316,4.10223158 C7.75806316,6.20665263 6.05869474,7.96117895 3.90164211,7.96117895" id="Fill-18" fill="#FFFFFF" mask="url(#mask-8)"></path>
                    </g>
                </g>
            </g>
        </g>
    </g>
</svg>